solid Exported from Blender-2.90.1
facet normal -0.994279 0.000000 0.106818
outer loop
vertex -1.000000 1.000000 1.000000
vertex -1.000000 -1.000000 1.000000
vertex -0.786192 -1.000000 2.990160
endloop
endfacet
facet normal -0.994279 0.000000 0.106818
outer loop
vertex -1.000000 1.000000 1.000000
vertex -0.786192 -1.000000 2.990160
vertex -0.786192 1.000000 2.990160
endloop
endfacet
facet normal 0.000000 -1.000000 0.000000
outer loop
vertex -1.000000 -1.000000 -1.000000
vertex 1.000000 -1.000000 -1.000000
vertex 1.000000 -1.000000 1.000000
endloop
endfacet
facet normal 0.000000 -1.000000 0.000000
outer loop
vertex 1.000000 -1.000000 1.000000
vertex 0.199990 -1.000000 1.000000
vertex 0.200000 -1.000000 0.999894
endloop
endfacet
facet normal 0.000000 -1.000000 0.000001
outer loop
vertex 1.000000 -1.000000 1.000000
vertex 0.200000 -1.000000 0.999894
vertex 0.196157 -1.000000 0.960876
endloop
endfacet
facet normal 0.000000 -1.000000 0.000000
outer loop
vertex -0.199990 -1.000000 1.000000
vertex -1.000000 -1.000000 1.000000
vertex -1.000000 -1.000000 -1.000000
endloop
endfacet
facet normal 0.000000 -1.000000 0.000000
outer loop
vertex -0.200000 -1.000000 0.999894
vertex -0.199990 -1.000000 1.000000
vertex -1.000000 -1.000000 -1.000000
endloop
endfacet
facet normal 0.000000 -1.000000 -0.000001
outer loop
vertex 1.000000 -1.000000 1.000000
vertex 0.196157 -1.000000 0.960876
vertex 0.184776 -1.000000 0.923357
endloop
endfacet
facet normal 0.000000 -1.000000 -0.000001
outer loop
vertex 1.000000 -1.000000 1.000000
vertex 0.184776 -1.000000 0.923357
vertex 0.166294 -1.000000 0.888780
endloop
endfacet
facet normal 0.000000 -1.000000 0.000000
outer loop
vertex -0.196157 -1.000000 0.960876
vertex -0.200000 -1.000000 0.999894
vertex -1.000000 -1.000000 -1.000000
endloop
endfacet
facet normal 0.000000 -1.000000 0.000002
outer loop
vertex -0.184776 -1.000000 0.923357
vertex -0.196157 -1.000000 0.960876
vertex -1.000000 -1.000000 -1.000000
endloop
endfacet
facet normal 0.000000 -1.000000 0.000000
outer loop
vertex -1.000000 -1.000000 -1.000000
vertex 1.000000 -1.000000 1.000000
vertex 0.166294 -1.000000 0.888780
endloop
endfacet
facet normal 0.000000 -1.000000 -0.000005
outer loop
vertex -1.000000 -1.000000 -1.000000
vertex 0.166294 -1.000000 0.888780
vertex 0.141421 -1.000000 0.858473
endloop
endfacet
facet normal 0.000000 -1.000000 -0.000002
outer loop
vertex -0.166294 -1.000000 0.888780
vertex -0.184776 -1.000000 0.923357
vertex -1.000000 -1.000000 -1.000000
endloop
endfacet
facet normal 0.000000 -1.000000 0.000002
outer loop
vertex -0.141421 -1.000000 0.858473
vertex -0.166294 -1.000000 0.888780
vertex -1.000000 -1.000000 -1.000000
endloop
endfacet
facet normal 0.000000 -1.000000 0.000007
outer loop
vertex -1.000000 -1.000000 -1.000000
vertex 0.141421 -1.000000 0.858473
vertex 0.111114 -1.000000 0.833600
endloop
endfacet
facet normal 0.000000 -1.000000 0.000000
outer loop
vertex -1.000000 -1.000000 -1.000000
vertex 0.111114 -1.000000 0.833600
vertex 0.076537 -1.000000 0.815118
endloop
endfacet
facet normal 0.000000 -1.000000 0.000000
outer loop
vertex -0.111114 -1.000000 0.833600
vertex -0.141421 -1.000000 0.858473
vertex -1.000000 -1.000000 -1.000000
endloop
endfacet
facet normal 0.000000 -1.000000 0.000000
outer loop
vertex -0.076536 -1.000000 0.815118
vertex -0.111114 -1.000000 0.833600
vertex -1.000000 -1.000000 -1.000000
endloop
endfacet
facet normal 0.000000 -1.000000 -0.000001
outer loop
vertex -1.000000 -1.000000 -1.000000
vertex 0.076537 -1.000000 0.815118
vertex 0.039018 -1.000000 0.803737
endloop
endfacet
facet normal 0.000000 -1.000000 -0.000001
outer loop
vertex -1.000000 -1.000000 -1.000000
vertex 0.039018 -1.000000 0.803737
vertex 0.000000 -1.000000 0.799894
endloop
endfacet
facet normal 0.000000 -1.000000 -0.000002
outer loop
vertex -0.039018 -1.000000 0.803737
vertex -0.076536 -1.000000 0.815118
vertex -1.000000 -1.000000 -1.000000
endloop
endfacet
facet normal 0.000000 -1.000000 0.000000
outer loop
vertex 0.000000 -1.000000 0.799894
vertex -0.039018 -1.000000 0.803737
vertex -1.000000 -1.000000 -1.000000
endloop
endfacet
facet normal -1.000000 0.000000 0.000000
outer loop
vertex -1.000000 -1.000000 -1.000000
vertex -1.000000 -1.000000 1.000000
vertex -1.000000 1.000000 1.000000
endloop
endfacet
facet normal -1.000000 0.000000 0.000000
outer loop
vertex -1.000000 -1.000000 -1.000000
vertex -1.000000 1.000000 1.000000
vertex -1.000000 1.000000 -1.000000
endloop
endfacet
facet normal 0.000000 0.000000 -1.000000
outer loop
vertex -1.000000 1.000000 -1.000000
vertex 1.000000 1.000000 -1.000000
vertex 1.000000 -1.000000 -1.000000
endloop
endfacet
facet normal 0.000000 0.000000 -1.000000
outer loop
vertex -1.000000 1.000000 -1.000000
vertex 1.000000 -1.000000 -1.000000
vertex -1.000000 -1.000000 -1.000000
endloop
endfacet
facet normal 1.000000 0.000000 0.000000
outer loop
vertex 1.000000 1.000000 -1.000000
vertex 1.000000 1.000000 1.000000
vertex 1.000000 -1.000000 1.000000
endloop
endfacet
facet normal 1.000000 0.000000 0.000000
outer loop
vertex 1.000000 1.000000 -1.000000
vertex 1.000000 -1.000000 1.000000
vertex 1.000000 -1.000000 -1.000000
endloop
endfacet
facet normal 0.000000 1.000000 0.000000
outer loop
vertex 1.000000 1.000000 -1.000000
vertex -1.000000 1.000000 -1.000000
vertex -1.000000 1.000000 1.000000
endloop
endfacet
facet normal 0.000000 1.000000 -0.000002
outer loop
vertex -1.000000 1.000000 1.000000
vertex -0.199990 1.000000 1.000000
vertex -0.196157 1.000000 0.961088
endloop
endfacet
facet normal 0.000000 1.000000 0.000004
outer loop
vertex -1.000000 1.000000 1.000000
vertex -0.196157 1.000000 0.961088
vertex -0.184776 1.000000 0.923569
endloop
endfacet
facet normal 0.000000 1.000000 0.000000
outer loop
vertex 0.199990 1.000000 1.000000
vertex 1.000000 1.000000 1.000000
vertex 1.000000 1.000000 -1.000000
endloop
endfacet
facet normal -0.000003 1.000000 0.000000
outer loop
vertex 0.196157 1.000000 0.961088
vertex 0.199990 1.000000 1.000000
vertex 1.000000 1.000000 -1.000000
endloop
endfacet
facet normal -0.000000 1.000000 -0.000009
outer loop
vertex -1.000000 1.000000 1.000000
vertex -0.184776 1.000000 0.923569
vertex -0.166294 1.000000 0.888992
endloop
endfacet
facet normal 0.000001 1.000000 0.000009
outer loop
vertex -1.000000 1.000000 1.000000
vertex -0.166294 1.000000 0.888992
vertex -0.141421 1.000000 0.858684
endloop
endfacet
facet normal -0.000000 1.000000 0.000000
outer loop
vertex 0.184776 1.000000 0.923569
vertex 0.196157 1.000000 0.961088
vertex 1.000000 1.000000 -1.000000
endloop
endfacet
facet normal -0.000002 1.000000 -0.000002
outer loop
vertex 0.166294 1.000000 0.888992
vertex 0.184776 1.000000 0.923569
vertex 1.000000 1.000000 -1.000000
endloop
endfacet
facet normal 0.000000 1.000000 0.000000
outer loop
vertex 1.000000 1.000000 -1.000000
vertex -1.000000 1.000000 1.000000
vertex -0.141421 1.000000 0.858684
endloop
endfacet
facet normal 0.000000 1.000000 0.000003
outer loop
vertex 1.000000 1.000000 -1.000000
vertex -0.141421 1.000000 0.858684
vertex -0.111114 1.000000 0.833812
endloop
endfacet
facet normal 0.000003 1.000000 0.000003
outer loop
vertex 0.141421 1.000000 0.858684
vertex 0.166294 1.000000 0.888992
vertex 1.000000 1.000000 -1.000000
endloop
endfacet
facet normal 0.000000 1.000000 0.000000
outer loop
vertex 0.111114 1.000000 0.833812
vertex 0.141421 1.000000 0.858684
vertex 1.000000 1.000000 -1.000000
endloop
endfacet
facet normal 0.000003 1.000000 -0.000002
outer loop
vertex 1.000000 1.000000 -1.000000
vertex -0.111114 1.000000 0.833812
vertex -0.076536 1.000000 0.815330
endloop
endfacet
facet normal -0.000002 1.000000 -0.000001
outer loop
vertex 1.000000 1.000000 -1.000000
vertex -0.076536 1.000000 0.815330
vertex -0.039018 1.000000 0.803949
endloop
endfacet
facet normal -0.000001 1.000000 0.000000
outer loop
vertex 0.076537 1.000000 0.815330
vertex 0.111114 1.000000 0.833812
vertex 1.000000 1.000000 -1.000000
endloop
endfacet
facet normal 0.000001 1.000000 0.000000
outer loop
vertex 0.039018 1.000000 0.803949
vertex 0.076537 1.000000 0.815330
vertex 1.000000 1.000000 -1.000000
endloop
endfacet
facet normal 0.000000 1.000000 0.000001
outer loop
vertex 1.000000 1.000000 -1.000000
vertex -0.039018 1.000000 0.803949
vertex 0.000000 1.000000 0.800106
endloop
endfacet
facet normal 0.000000 1.000000 0.000000
outer loop
vertex 0.000000 1.000000 0.800106
vertex 0.039018 1.000000 0.803949
vertex 1.000000 1.000000 -1.000000
endloop
endfacet
facet normal 0.000000 1.000000 0.000000
outer loop
vertex 0.786192 1.000000 1.754195
vertex -0.786192 1.000000 2.990160
vertex -0.248610 1.000000 3.674067
endloop
endfacet
facet normal 0.000000 1.000000 0.000000
outer loop
vertex 0.786192 1.000000 1.754195
vertex -0.248610 1.000000 3.674067
vertex 1.323774 1.000000 2.438102
endloop
endfacet
facet normal 0.962087 0.000000 0.272743
outer loop
vertex 1.000000 -1.000000 1.000000
vertex 1.000000 1.000000 1.000000
vertex 0.786192 1.000000 1.754195
endloop
endfacet
facet normal 0.962087 0.000000 0.272743
outer loop
vertex 1.000000 -1.000000 1.000000
vertex 0.786192 1.000000 1.754195
vertex 0.786192 -1.000000 1.754195
endloop
endfacet
facet normal 0.000000 1.000000 0.000000
outer loop
vertex 0.786192 1.000000 1.754195
vertex 1.000000 1.000000 1.000000
vertex 0.199990 1.000000 1.000000
endloop
endfacet
facet normal 0.000000 0.999999 0.001102
outer loop
vertex 0.786192 1.000000 1.754195
vertex 0.199990 1.000000 1.000000
vertex 0.200000 1.000000 1.000106
endloop
endfacet
facet normal 0.000000 1.000000 0.000000
outer loop
vertex -1.000000 1.000000 1.000000
vertex -0.786192 1.000000 2.990160
vertex 0.786192 1.000000 1.754195
endloop
endfacet
facet normal 0.000000 1.000000 0.000000
outer loop
vertex -0.200000 1.000000 1.000106
vertex -0.199990 1.000000 1.000000
vertex -1.000000 1.000000 1.000000
endloop
endfacet
facet normal 0.000000 1.000000 -0.000008
outer loop
vertex -0.196157 1.000000 1.039124
vertex -0.200000 1.000000 1.000106
vertex -1.000000 1.000000 1.000000
endloop
endfacet
facet normal 0.000007 1.000000 -0.000006
outer loop
vertex 0.786192 1.000000 1.754195
vertex 0.200000 1.000000 1.000106
vertex 0.196157 1.000000 1.039124
endloop
endfacet
facet normal -0.000003 1.000000 0.000004
outer loop
vertex 0.786192 1.000000 1.754195
vertex 0.196157 1.000000 1.039124
vertex 0.184776 1.000000 1.076643
endloop
endfacet
facet normal -0.000000 1.000000 0.000008
outer loop
vertex -0.184776 1.000000 1.076642
vertex -0.196157 1.000000 1.039124
vertex -1.000000 1.000000 1.000000
endloop
endfacet
facet normal 0.000001 1.000000 -0.000013
outer loop
vertex -0.166294 1.000000 1.111220
vertex -0.184776 1.000000 1.076642
vertex -1.000000 1.000000 1.000000
endloop
endfacet
facet normal 0.000005 1.000000 -0.000005
outer loop
vertex 0.786192 1.000000 1.754195
vertex 0.184776 1.000000 1.076643
vertex 0.166294 1.000000 1.111220
endloop
endfacet
facet normal -0.000011 1.000000 0.000009
outer loop
vertex 0.786192 1.000000 1.754195
vertex 0.166294 1.000000 1.111220
vertex 0.141421 1.000000 1.141527
endloop
endfacet
facet normal -0.000003 1.000000 0.000026
outer loop
vertex -0.141421 1.000000 1.141527
vertex -0.166294 1.000000 1.111220
vertex -1.000000 1.000000 1.000000
endloop
endfacet
facet normal 0.000002 1.000000 -0.000021
outer loop
vertex -0.111114 1.000000 1.166400
vertex -0.141421 1.000000 1.141527
vertex -1.000000 1.000000 1.000000
endloop
endfacet
facet normal 0.000004 1.000000 -0.000002
outer loop
vertex 0.786192 1.000000 1.754195
vertex 0.141421 1.000000 1.141527
vertex 0.111114 1.000000 1.166400
endloop
endfacet
facet normal 0.000002 1.000000 -0.000002
outer loop
vertex 0.786192 1.000000 1.754195
vertex 0.111114 1.000000 1.166400
vertex 0.076537 1.000000 1.184882
endloop
endfacet
facet normal 0.000000 1.000000 0.000000
outer loop
vertex -0.111114 1.000000 1.166400
vertex -1.000000 1.000000 1.000000
vertex 0.786192 1.000000 1.754195
endloop
endfacet
facet normal -0.000019 1.000000 0.000000
outer loop
vertex -0.076537 1.000000 1.184882
vertex -0.111114 1.000000 1.166400
vertex 0.786192 1.000000 1.754195
endloop
endfacet
facet normal 0.000002 1.000000 -0.000002
outer loop
vertex 0.786192 1.000000 1.754195
vertex 0.076537 1.000000 1.184882
vertex 0.039018 1.000000 1.196263
endloop
endfacet
facet normal -0.000005 1.000000 0.000005
outer loop
vertex 0.786192 1.000000 1.754195
vertex 0.039018 1.000000 1.196263
vertex -0.000000 1.000000 1.200106
endloop
endfacet
facet normal -0.000006 1.000000 0.000021
outer loop
vertex -0.039018 1.000000 1.196263
vertex -0.076537 1.000000 1.184882
vertex 0.786192 1.000000 1.754195
endloop
endfacet
facet normal 0.000007 1.000000 -0.000013
outer loop
vertex -0.000000 1.000000 1.200106
vertex -0.039018 1.000000 1.196263
vertex 0.786192 1.000000 1.754195
endloop
endfacet
facet normal 0.000000 -1.000000 0.000000
outer loop
vertex -0.786192 -1.000000 2.990160
vertex -1.000000 -1.000000 1.000000
vertex -0.199990 -1.000000 1.000000
endloop
endfacet
facet normal 0.000008 -1.000000 0.000002
outer loop
vertex -0.786192 -1.000000 2.990160
vertex -0.199990 -1.000000 1.000000
vertex -0.196157 -1.000000 1.038912
endloop
endfacet
facet normal 0.000000 -1.000000 0.000000
outer loop
vertex 1.000000 -1.000000 1.000000
vertex 0.786192 -1.000000 1.754195
vertex -0.786192 -1.000000 2.990160
endloop
endfacet
facet normal 0.000000 -1.000000 0.000000
outer loop
vertex 0.196157 -1.000000 1.038912
vertex 0.199990 -1.000000 1.000000
vertex 1.000000 -1.000000 1.000000
endloop
endfacet
facet normal -0.000000 -1.000000 -0.000004
outer loop
vertex 0.184776 -1.000000 1.076431
vertex 0.196157 -1.000000 1.038912
vertex 1.000000 -1.000000 1.000000
endloop
endfacet
facet normal -0.000005 -1.000000 -0.000002
outer loop
vertex -0.786192 -1.000000 2.990160
vertex -0.196157 -1.000000 1.038912
vertex -0.184776 -1.000000 1.076431
endloop
endfacet
facet normal 0.000000 -1.000000 0.000001
outer loop
vertex -0.786192 -1.000000 2.990160
vertex -0.184776 -1.000000 1.076431
vertex -0.166294 -1.000000 1.111008
endloop
endfacet
facet normal 0.000000 -1.000000 0.000000
outer loop
vertex 0.184776 -1.000000 1.076431
vertex 1.000000 -1.000000 1.000000
vertex -0.786192 -1.000000 2.990160
endloop
endfacet
facet normal 0.000000 -1.000000 0.000000
outer loop
vertex 0.166294 -1.000000 1.111008
vertex 0.184776 -1.000000 1.076431
vertex -0.786192 -1.000000 2.990160
endloop
endfacet
facet normal 0.000000 -1.000000 0.000000
outer loop
vertex -0.786192 -1.000000 2.990160
vertex -0.166294 -1.000000 1.111008
vertex -0.141421 -1.000000 1.141315
endloop
endfacet
facet normal 0.000000 -1.000000 -0.000001
outer loop
vertex -0.786192 -1.000000 2.990160
vertex -0.141421 -1.000000 1.141315
vertex -0.111114 -1.000000 1.166188
endloop
endfacet
facet normal 0.000000 -1.000000 0.000000
outer loop
vertex 0.141421 -1.000000 1.141316
vertex 0.166294 -1.000000 1.111008
vertex -0.786192 -1.000000 2.990160
endloop
endfacet
facet normal 0.000000 -1.000000 0.000004
outer loop
vertex 0.111114 -1.000000 1.166188
vertex 0.141421 -1.000000 1.141316
vertex -0.786192 -1.000000 2.990160
endloop
endfacet
facet normal 0.000000 -1.000000 0.000000
outer loop
vertex -0.786192 -1.000000 2.990160
vertex -0.111114 -1.000000 1.166188
vertex -0.076537 -1.000000 1.184670
endloop
endfacet
facet normal 0.000000 -1.000000 0.000000
outer loop
vertex -0.786192 -1.000000 2.990160
vertex -0.076537 -1.000000 1.184670
vertex -0.039018 -1.000000 1.196051
endloop
endfacet
facet normal 0.000000 -1.000000 -0.000003
outer loop
vertex 0.076537 -1.000000 1.184670
vertex 0.111114 -1.000000 1.166188
vertex -0.786192 -1.000000 2.990160
endloop
endfacet
facet normal 0.000000 -1.000000 0.000000
outer loop
vertex 0.039018 -1.000000 1.196051
vertex 0.076537 -1.000000 1.184670
vertex -0.786192 -1.000000 2.990160
endloop
endfacet
facet normal 0.000000 -1.000000 -0.000000
outer loop
vertex -0.786192 -1.000000 2.990160
vertex -0.039018 -1.000000 1.196051
vertex -0.000000 -1.000000 1.199894
endloop
endfacet
facet normal 0.000000 -1.000000 0.000000
outer loop
vertex -0.000000 -1.000000 1.199894
vertex 0.039018 -1.000000 1.196051
vertex -0.786192 -1.000000 2.990160
endloop
endfacet
facet normal -0.357672 0.000000 0.933847
outer loop
vertex -0.248610 1.000000 3.674067
vertex -0.248610 -1.000000 3.674067
vertex 0.135896 -1.071321 3.821336
endloop
endfacet
facet normal -0.778292 -0.100408 0.619823
outer loop
vertex -0.248610 1.000000 3.674067
vertex 0.135896 -1.071321 3.821336
vertex 0.013186 0.917817 3.989484
endloop
endfacet
facet normal 0.786192 0.000000 -0.617982
outer loop
vertex 0.786192 -1.000000 1.754195
vertex 0.786192 1.000000 1.754195
vertex 1.323774 1.000000 2.438102
endloop
endfacet
facet normal 0.786192 0.000000 -0.617983
outer loop
vertex 0.786192 -1.000000 1.754195
vertex 1.323774 1.000000 2.438102
vertex 1.323774 -1.000000 2.438102
endloop
endfacet
facet normal -0.786192 0.000000 0.617982
outer loop
vertex -0.786192 1.000000 2.990160
vertex -0.786192 -1.000000 2.990160
vertex -0.248610 -1.000000 3.674067
endloop
endfacet
facet normal -0.786192 0.000000 0.617983
outer loop
vertex -0.786192 1.000000 2.990160
vertex -0.248610 -1.000000 3.674067
vertex -0.248610 1.000000 3.674067
endloop
endfacet
facet normal 0.000000 -1.000000 0.000000
outer loop
vertex -0.786192 -1.000000 2.990160
vertex 0.786192 -1.000000 1.754195
vertex 1.323774 -1.000000 2.438102
endloop
endfacet
facet normal 0.000000 -1.000000 0.000000
outer loop
vertex -0.786192 -1.000000 2.990160
vertex 1.323774 -1.000000 2.438102
vertex -0.248610 -1.000000 3.674067
endloop
endfacet
facet normal 0.199672 -0.070299 0.977338
outer loop
vertex 1.969066 1.071321 3.600935
vertex 1.174568 1.008966 3.758767
vertex 1.129841 -0.993313 3.623882
endloop
endfacet
facet normal 0.199672 -0.070299 0.977338
outer loop
vertex 1.969066 1.071321 3.600935
vertex 1.129841 -0.993313 3.623882
vertex 2.091776 -0.917817 3.432787
endloop
endfacet
facet normal 0.005087 -0.999966 0.006471
outer loop
vertex -0.248610 -1.000000 3.674067
vertex 1.323774 -1.000000 2.438102
vertex 1.129841 -0.993313 3.623882
endloop
endfacet
facet normal -0.010627 -0.910565 -0.413229
outer loop
vertex -0.248610 -1.000000 3.674067
vertex 1.129841 -0.993313 3.623882
vertex 0.135896 -1.071321 3.821336
endloop
endfacet
facet normal -0.081383 0.996555 -0.015960
outer loop
vertex 1.323774 1.000000 2.438102
vertex 1.174568 1.008966 3.758767
vertex 1.969066 1.071321 3.600935
endloop
endfacet
facet normal 0.874389 0.000000 -0.485226
outer loop
vertex 1.323774 -1.000000 2.438102
vertex 1.323774 1.000000 2.438102
vertex 1.969066 1.071321 3.600935
endloop
endfacet
facet normal 0.783521 0.100174 -0.613237
outer loop
vertex 1.323774 -1.000000 2.438102
vertex 1.969066 1.071321 3.600935
vertex 2.091776 -0.917817 3.432787
endloop
endfacet
facet normal -0.002933 -0.010987 0.999935
outer loop
vertex 0.907418 -0.535258 4.586053
vertex 0.909108 0.484029 4.597257
vertex 0.525885 0.396872 4.595175
endloop
endfacet
facet normal 0.173424 0.061365 0.982934
outer loop
vertex 0.907418 -0.535258 4.586053
vertex 0.525885 0.396872 4.595175
vertex 0.557813 -0.517124 4.646603
endloop
endfacet
facet normal -0.069113 0.996557 0.045806
outer loop
vertex 1.174568 1.008966 3.758767
vertex 0.013186 0.917817 3.989484
vertex 0.036184 0.903028 4.345944
endloop
endfacet
facet normal -0.051408 0.995474 0.079935
outer loop
vertex 1.174568 1.008966 3.758767
vertex 0.036184 0.903028 4.345944
vertex 1.345556 0.990000 4.104923
endloop
endfacet
facet normal 0.081984 -0.996452 0.019028
outer loop
vertex 1.129841 -0.993313 3.623882
vertex 1.323774 -1.000000 2.438102
vertex 2.091776 -0.917817 3.432787
endloop
endfacet
facet normal -0.005856 0.999955 -0.007450
outer loop
vertex 1.174568 1.008966 3.758767
vertex 1.323774 1.000000 2.438102
vertex -0.248610 1.000000 3.674067
endloop
endfacet
facet normal -0.022087 0.962831 0.269200
outer loop
vertex 1.174568 1.008966 3.758767
vertex -0.248610 1.000000 3.674067
vertex 0.013186 0.917817 3.989484
endloop
endfacet
facet normal 0.896752 0.009773 -0.442425
outer loop
vertex 1.129841 -0.993313 3.623882
vertex 1.174568 1.008966 3.758767
vertex 1.345556 0.990000 4.104923
endloop
endfacet
facet normal 0.990389 -0.080426 -0.112526
outer loop
vertex 1.129841 -0.993313 3.623882
vertex 1.345556 0.990000 4.104923
vertex 1.153462 -1.055550 3.876256
endloop
endfacet
facet normal -0.989443 -0.071685 0.125948
outer loop
vertex 0.013186 0.917817 3.989484
vertex 0.135896 -1.071321 3.821336
vertex 0.186251 -1.218415 4.133201
endloop
endfacet
facet normal -0.995198 -0.076519 0.061033
outer loop
vertex 0.013186 0.917817 3.989484
vertex 0.186251 -1.218415 4.133201
vertex 0.036184 0.903028 4.345944
endloop
endfacet
facet normal 0.028083 -0.969916 -0.241816
outer loop
vertex 0.135896 -1.071321 3.821336
vertex 1.129841 -0.993313 3.623882
vertex 1.153462 -1.055550 3.876256
endloop
endfacet
facet normal 0.037245 -0.901484 -0.431208
outer loop
vertex 0.135896 -1.071321 3.821336
vertex 1.153462 -1.055550 3.876256
vertex 0.186251 -1.218415 4.133201
endloop
endfacet
facet normal 0.102140 -0.622283 0.776100
outer loop
vertex 0.907418 -0.535258 4.586053
vertex 0.557813 -0.517124 4.646603
vertex 0.186251 -1.218415 4.133201
endloop
endfacet
facet normal 0.288655 -0.721738 0.629105
outer loop
vertex 0.907418 -0.535258 4.586053
vertex 0.186251 -1.218415 4.133201
vertex 1.153462 -1.055550 3.876256
endloop
endfacet
facet normal -0.423358 0.036146 0.905241
outer loop
vertex 0.557813 -0.517124 4.646603
vertex 0.525885 0.396872 4.595175
vertex 0.036184 0.903028 4.345944
endloop
endfacet
facet normal -0.719602 -0.119499 0.684027
outer loop
vertex 0.557813 -0.517124 4.646603
vertex 0.036184 0.903028 4.345944
vertex 0.186251 -1.218415 4.133201
endloop
endfacet
facet normal -0.176324 0.760360 0.625110
outer loop
vertex 0.525885 0.396872 4.595175
vertex 0.909108 0.484029 4.597257
vertex 1.345556 0.990000 4.104923
endloop
endfacet
facet normal 0.119474 0.529221 0.840030
outer loop
vertex 0.525885 0.396872 4.595175
vertex 1.345556 0.990000 4.104923
vertex 0.036184 0.903028 4.345944
endloop
endfacet
facet normal 0.943645 -0.005202 0.330919
outer loop
vertex 0.909108 0.484029 4.597257
vertex 0.907418 -0.535258 4.586053
vertex 1.153462 -1.055550 3.876256
endloop
endfacet
facet normal 0.807912 -0.139864 0.572466
outer loop
vertex 0.909108 0.484029 4.597257
vertex 1.153462 -1.055550 3.876256
vertex 1.345556 0.990000 4.104923
endloop
endfacet
facet normal -0.995185 0.000010 -0.098018
outer loop
vertex 0.199990 -1.000000 1.000000
vertex 0.196157 -1.000000 1.038912
vertex 0.196157 1.000000 1.039124
endloop
endfacet
facet normal -0.995185 0.000010 -0.098017
outer loop
vertex 0.196157 1.000000 1.039124
vertex 0.200000 1.000000 1.000106
vertex 0.200000 -1.000000 0.999894
endloop
endfacet
facet normal -0.995235 0.000002 -0.097506
outer loop
vertex 0.196157 1.000000 1.039124
vertex 0.200000 -1.000000 0.999894
vertex 0.199990 -1.000000 1.000000
endloop
endfacet
facet normal -0.773010 0.000067 -0.634394
outer loop
vertex 0.141421 -1.000000 1.141316
vertex 0.141421 1.000000 1.141527
vertex 0.166294 1.000000 1.111220
endloop
endfacet
facet normal -0.773010 0.000067 -0.634394
outer loop
vertex 0.141421 -1.000000 1.141316
vertex 0.166294 1.000000 1.111220
vertex 0.166294 -1.000000 1.111008
endloop
endfacet
facet normal -0.881922 0.000050 -0.471395
outer loop
vertex 0.166294 -1.000000 1.111008
vertex 0.166294 1.000000 1.111220
vertex 0.184776 1.000000 1.076643
endloop
endfacet
facet normal -0.881921 0.000050 -0.471397
outer loop
vertex 0.166294 -1.000000 1.111008
vertex 0.184776 1.000000 1.076643
vertex 0.184776 -1.000000 1.076431
endloop
endfacet
facet normal 0.995185 -0.000010 0.098018
outer loop
vertex -0.200000 -1.000000 0.999894
vertex -0.196157 -1.000000 0.960876
vertex -0.196157 1.000000 0.961088
endloop
endfacet
facet normal 0.995214 -0.000010 0.097724
outer loop
vertex -0.199990 1.000000 1.000000
vertex -0.200000 1.000000 1.000106
vertex -0.200000 -1.000000 0.999894
endloop
endfacet
facet normal 0.995185 -0.000010 0.098019
outer loop
vertex -0.196157 1.000000 0.961088
vertex -0.199990 1.000000 1.000000
vertex -0.200000 -1.000000 0.999894
endloop
endfacet
facet normal -0.956941 -0.000031 0.290284
outer loop
vertex 0.196157 -1.000000 0.960876
vertex 0.196157 1.000000 0.961088
vertex 0.184776 1.000000 0.923569
endloop
endfacet
facet normal -0.956940 -0.000031 0.290286
outer loop
vertex 0.196157 -1.000000 0.960876
vertex 0.184776 1.000000 0.923569
vertex 0.184776 -1.000000 0.923357
endloop
endfacet
facet normal -0.995185 -0.000010 0.098017
outer loop
vertex 0.196157 -1.000000 0.960876
vertex 0.200000 -1.000000 0.999894
vertex 0.200000 1.000000 1.000106
endloop
endfacet
facet normal -0.995185 -0.000010 0.098016
outer loop
vertex 0.199990 1.000000 1.000000
vertex 0.196157 1.000000 0.961088
vertex 0.196157 -1.000000 0.960876
endloop
endfacet
facet normal -0.995153 -0.000013 0.098339
outer loop
vertex 0.200000 1.000000 1.000106
vertex 0.199990 1.000000 1.000000
vertex 0.196157 -1.000000 0.960876
endloop
endfacet
facet normal -0.773011 -0.000067 0.634392
outer loop
vertex 0.166294 -1.000000 0.888780
vertex 0.166294 1.000000 0.888992
vertex 0.141421 1.000000 0.858684
endloop
endfacet
facet normal -0.773011 -0.000067 0.634392
outer loop
vertex 0.166294 -1.000000 0.888780
vertex 0.141421 1.000000 0.858684
vertex 0.141421 -1.000000 0.858473
endloop
endfacet
facet normal 0.098015 -0.000105 0.995185
outer loop
vertex 0.000000 -1.000000 0.799894
vertex 0.000000 1.000000 0.800106
vertex -0.039018 1.000000 0.803949
endloop
endfacet
facet normal 0.098018 -0.000105 0.995185
outer loop
vertex 0.000000 -1.000000 0.799894
vertex -0.039018 1.000000 0.803949
vertex -0.039018 -1.000000 0.803737
endloop
endfacet
facet normal 0.098021 0.000105 -0.995184
outer loop
vertex -0.039018 -1.000000 1.196051
vertex -0.039018 1.000000 1.196263
vertex -0.000000 1.000000 1.200106
endloop
endfacet
facet normal 0.098014 0.000105 -0.995185
outer loop
vertex -0.039018 -1.000000 1.196051
vertex -0.000000 1.000000 1.200106
vertex -0.000000 -1.000000 1.199894
endloop
endfacet
facet normal 0.881921 -0.000050 0.471397
outer loop
vertex -0.166294 -1.000000 0.888780
vertex -0.166294 1.000000 0.888992
vertex -0.184776 1.000000 0.923569
endloop
endfacet
facet normal 0.881921 -0.000050 0.471398
outer loop
vertex -0.166294 -1.000000 0.888780
vertex -0.184776 1.000000 0.923569
vertex -0.184776 -1.000000 0.923357
endloop
endfacet
facet normal -0.098015 0.000105 -0.995185
outer loop
vertex -0.000000 -1.000000 1.199894
vertex -0.000000 1.000000 1.200106
vertex 0.039018 1.000000 1.196263
endloop
endfacet
facet normal -0.098020 0.000105 -0.995184
outer loop
vertex -0.000000 -1.000000 1.199894
vertex 0.039018 1.000000 1.196263
vertex 0.039018 -1.000000 1.196051
endloop
endfacet
facet normal 0.290286 -0.000101 0.956940
outer loop
vertex -0.039018 -1.000000 0.803737
vertex -0.039018 1.000000 0.803949
vertex -0.076536 1.000000 0.815330
endloop
endfacet
facet normal 0.290284 -0.000101 0.956940
outer loop
vertex -0.039018 -1.000000 0.803737
vertex -0.076536 1.000000 0.815330
vertex -0.076536 -1.000000 0.815118
endloop
endfacet
facet normal -0.634393 -0.000082 0.773011
outer loop
vertex 0.141421 -1.000000 0.858473
vertex 0.141421 1.000000 0.858684
vertex 0.111114 1.000000 0.833812
endloop
endfacet
facet normal -0.634393 -0.000082 0.773011
outer loop
vertex 0.141421 -1.000000 0.858473
vertex 0.111114 1.000000 0.833812
vertex 0.111114 -1.000000 0.833600
endloop
endfacet
facet normal 0.471393 0.000093 -0.881923
outer loop
vertex -0.111114 -1.000000 1.166188
vertex -0.111114 1.000000 1.166400
vertex -0.076537 1.000000 1.184882
endloop
endfacet
facet normal 0.471396 0.000093 -0.881922
outer loop
vertex -0.111114 -1.000000 1.166188
vertex -0.076537 1.000000 1.184882
vertex -0.076537 -1.000000 1.184670
endloop
endfacet
facet normal -0.471395 -0.000093 0.881922
outer loop
vertex 0.111114 -1.000000 0.833600
vertex 0.111114 1.000000 0.833812
vertex 0.076537 1.000000 0.815330
endloop
endfacet
facet normal -0.471396 -0.000093 0.881921
outer loop
vertex 0.111114 -1.000000 0.833600
vertex 0.076537 1.000000 0.815330
vertex 0.076537 -1.000000 0.815118
endloop
endfacet
facet normal -0.634392 0.000082 -0.773011
outer loop
vertex 0.111114 -1.000000 1.166188
vertex 0.111114 1.000000 1.166400
vertex 0.141421 1.000000 1.141527
endloop
endfacet
facet normal -0.634396 0.000082 -0.773008
outer loop
vertex 0.111114 -1.000000 1.166188
vertex 0.141421 1.000000 1.141527
vertex 0.141421 -1.000000 1.141316
endloop
endfacet
facet normal 0.634392 -0.000082 0.773011
outer loop
vertex -0.111114 -1.000000 0.833600
vertex -0.111114 1.000000 0.833812
vertex -0.141421 1.000000 0.858684
endloop
endfacet
facet normal 0.634392 -0.000082 0.773011
outer loop
vertex -0.111114 -1.000000 0.833600
vertex -0.141421 1.000000 0.858684
vertex -0.141421 -1.000000 0.858473
endloop
endfacet
facet normal 0.956940 -0.000031 0.290285
outer loop
vertex -0.184776 -1.000000 0.923357
vertex -0.184776 1.000000 0.923569
vertex -0.196157 1.000000 0.961088
endloop
endfacet
facet normal 0.956940 -0.000031 0.290287
outer loop
vertex -0.184776 -1.000000 0.923357
vertex -0.196157 1.000000 0.961088
vertex -0.196157 -1.000000 0.960876
endloop
endfacet
facet normal -0.471389 0.000093 -0.881926
outer loop
vertex 0.076537 -1.000000 1.184670
vertex 0.076537 1.000000 1.184882
vertex 0.111114 1.000000 1.166400
endloop
endfacet
facet normal -0.471396 0.000093 -0.881922
outer loop
vertex 0.076537 -1.000000 1.184670
vertex 0.111114 1.000000 1.166400
vertex 0.111114 -1.000000 1.166188
endloop
endfacet
facet normal 0.634392 0.000082 -0.773011
outer loop
vertex -0.141421 -1.000000 1.141315
vertex -0.141421 1.000000 1.141527
vertex -0.111114 1.000000 1.166400
endloop
endfacet
facet normal 0.634393 0.000082 -0.773011
outer loop
vertex -0.141421 -1.000000 1.141315
vertex -0.111114 1.000000 1.166400
vertex -0.111114 -1.000000 1.166188
endloop
endfacet
facet normal 0.881924 0.000050 -0.471392
outer loop
vertex -0.184776 -1.000000 1.076431
vertex -0.184776 1.000000 1.076642
vertex -0.166294 1.000000 1.111220
endloop
endfacet
facet normal 0.881921 0.000050 -0.471397
outer loop
vertex -0.184776 -1.000000 1.076431
vertex -0.166294 1.000000 1.111220
vertex -0.166294 -1.000000 1.111008
endloop
endfacet
facet normal -0.098017 -0.000105 0.995185
outer loop
vertex 0.039018 -1.000000 0.803737
vertex 0.039018 1.000000 0.803949
vertex 0.000000 1.000000 0.800106
endloop
endfacet
facet normal -0.098017 -0.000105 0.995185
outer loop
vertex 0.039018 -1.000000 0.803737
vertex 0.000000 1.000000 0.800106
vertex 0.000000 -1.000000 0.799894
endloop
endfacet
facet normal -0.881922 -0.000050 0.471396
outer loop
vertex 0.184776 -1.000000 0.923357
vertex 0.184776 1.000000 0.923569
vertex 0.166294 1.000000 0.888992
endloop
endfacet
facet normal -0.881921 -0.000050 0.471397
outer loop
vertex 0.184776 -1.000000 0.923357
vertex 0.166294 1.000000 0.888992
vertex 0.166294 -1.000000 0.888780
endloop
endfacet
facet normal 0.995246 0.000010 -0.097397
outer loop
vertex -0.199990 -1.000000 1.000000
vertex -0.200000 -1.000000 0.999894
vertex -0.200000 1.000000 1.000106
endloop
endfacet
facet normal 0.995185 0.000010 -0.098016
outer loop
vertex -0.200000 1.000000 1.000106
vertex -0.196157 1.000000 1.039124
vertex -0.196157 -1.000000 1.038912
endloop
endfacet
facet normal 0.995185 0.000010 -0.098019
outer loop
vertex -0.200000 1.000000 1.000106
vertex -0.196157 -1.000000 1.038912
vertex -0.199990 -1.000000 1.000000
endloop
endfacet
facet normal -0.956940 0.000031 -0.290285
outer loop
vertex 0.184776 -1.000000 1.076431
vertex 0.184776 1.000000 1.076643
vertex 0.196157 1.000000 1.039124
endloop
endfacet
facet normal -0.956941 0.000031 -0.290284
outer loop
vertex 0.184776 -1.000000 1.076431
vertex 0.196157 1.000000 1.039124
vertex 0.196157 -1.000000 1.038912
endloop
endfacet
facet normal 0.290287 0.000101 -0.956940
outer loop
vertex -0.076537 -1.000000 1.184670
vertex -0.076537 1.000000 1.184882
vertex -0.039018 1.000000 1.196263
endloop
endfacet
facet normal 0.290290 0.000101 -0.956939
outer loop
vertex -0.076537 -1.000000 1.184670
vertex -0.039018 1.000000 1.196263
vertex -0.039018 -1.000000 1.196051
endloop
endfacet
facet normal 0.471395 -0.000093 0.881922
outer loop
vertex -0.076536 -1.000000 0.815118
vertex -0.076536 1.000000 0.815330
vertex -0.111114 1.000000 0.833812
endloop
endfacet
facet normal 0.471394 -0.000093 0.881923
outer loop
vertex -0.076536 -1.000000 0.815118
vertex -0.111114 1.000000 0.833812
vertex -0.111114 -1.000000 0.833600
endloop
endfacet
facet normal -0.290292 0.000101 -0.956938
outer loop
vertex 0.039018 -1.000000 1.196051
vertex 0.039018 1.000000 1.196263
vertex 0.076537 1.000000 1.184882
endloop
endfacet
facet normal -0.290285 0.000101 -0.956940
outer loop
vertex 0.039018 -1.000000 1.196051
vertex 0.076537 1.000000 1.184882
vertex 0.076537 -1.000000 1.184670
endloop
endfacet
facet normal -0.290286 -0.000101 0.956940
outer loop
vertex 0.076537 -1.000000 0.815118
vertex 0.076537 1.000000 0.815330
vertex 0.039018 1.000000 0.803949
endloop
endfacet
facet normal -0.290285 -0.000101 0.956940
outer loop
vertex 0.076537 -1.000000 0.815118
vertex 0.039018 1.000000 0.803949
vertex 0.039018 -1.000000 0.803737
endloop
endfacet
facet normal 0.956941 0.000031 -0.290284
outer loop
vertex -0.196157 -1.000000 1.038912
vertex -0.196157 1.000000 1.039124
vertex -0.184776 1.000000 1.076642
endloop
endfacet
facet normal 0.956940 0.000031 -0.290284
outer loop
vertex -0.196157 -1.000000 1.038912
vertex -0.184776 1.000000 1.076642
vertex -0.184776 -1.000000 1.076431
endloop
endfacet
facet normal 0.773010 -0.000067 0.634394
outer loop
vertex -0.141421 -1.000000 0.858473
vertex -0.141421 1.000000 0.858684
vertex -0.166294 1.000000 0.888992
endloop
endfacet
facet normal 0.773010 -0.000067 0.634394
outer loop
vertex -0.141421 -1.000000 0.858473
vertex -0.166294 1.000000 0.888992
vertex -0.166294 -1.000000 0.888780
endloop
endfacet
facet normal 0.773010 0.000067 -0.634394
outer loop
vertex -0.166294 -1.000000 1.111008
vertex -0.166294 1.000000 1.111220
vertex -0.141421 1.000000 1.141527
endloop
endfacet
facet normal 0.773010 0.000067 -0.634393
outer loop
vertex -0.166294 -1.000000 1.111008
vertex -0.141421 1.000000 1.141527
vertex -0.141421 -1.000000 1.141315
endloop
endfacet
endsolid Exported from Blender-2.90.1
